<svg width="20" height="20" viewBox="0 0 20 20" fill="none" xmlns="http://www.w3.org/2000/svg">
<mask id="path-1-inside-1" fill="white">
<path d="M0 0V3V6H3V3H6V0H3H0Z"/>
</mask>
<path d="M0 0V3V6H3V3H6V0H3H0Z" fill="#333333"/>
<path d="M0 0V-4H-4V0H0ZM0 6H-4V10H0V6ZM3 6V10H7V6H3ZM3 3V-1H-1V3H3ZM6 3V7H10V3H6ZM6 0H10V-4H6V0ZM-4 0V3H4V0H-4ZM-4 3V6H4V3H-4ZM0 10H3V2H0V10ZM7 6V3H-1V6H7ZM3 7H6V-1H3V7ZM10 3V0H2V3H10ZM6 -4H3V4H6V-4ZM3 -4H0V4H3V-4Z" fill="#333333" mask="url(#path-1-inside-1)"/>
<mask id="path-3-inside-2" fill="white">
<path d="M3 14H0V17V20H3H6V17H3V14Z"/>
</mask>
<path d="M3 14H0V17V20H3H6V17H3V14Z" fill="#333333"/>
<path d="M3 14H7V10H3V14ZM0 14V10H-4V14H0ZM0 20H-4V24H0V20ZM6 20V24H10V20H6ZM6 17H10V13H6V17ZM3 17H-1V21H3V17ZM3 10H0V18H3V10ZM-4 14V17H4V14H-4ZM-4 17V20H4V17H-4ZM0 24H3V16H0V24ZM3 24H6V16H3V24ZM10 20V17H2V20H10ZM6 13H3V21H6V13ZM7 17V14H-1V17H7Z" fill="#333333" mask="url(#path-3-inside-2)"/>
<mask id="path-5-inside-3" fill="white">
<path d="M17 0H14V3H17V6H20V3V0H17Z"/>
</mask>
<path d="M17 0H14V3H17V6H20V3V0H17Z" fill="#333333"/>
<path d="M14 0V-4H10V0H14ZM14 3H10V7H14V3ZM17 3H21V-1H17V3ZM17 6H13V10H17V6ZM20 6V10H24V6H20ZM20 0H24V-4H20V0ZM17 -4H14V4H17V-4ZM10 0V3H18V0H10ZM14 7H17V-1H14V7ZM13 3V6H21V3H13ZM17 10H20V2H17V10ZM24 6V3H16V6H24ZM24 3V0H16V3H24ZM20 -4H17V4H20V-4Z" fill="#333333" mask="url(#path-5-inside-3)"/>
<mask id="path-7-inside-4" fill="white">
<path d="M17 17H14V20H17H20V17V14H17V17Z"/>
</mask>
<path d="M17 17H14V20H17H20V17V14H17V17Z" fill="#333333"/>
<path d="M17 17V21H21V17H17ZM14 17V13H10V17H14ZM14 20H10V24H14V20ZM20 20V24H24V20H20ZM20 14H24V10H20V14ZM17 14V10H13V14H17ZM17 13H14V21H17V13ZM10 17V20H18V17H10ZM14 24H17V16H14V24ZM17 24H20V16H17V24ZM24 20V17H16V20H24ZM24 17V14H16V17H24ZM20 10H17V18H20V10ZM13 14V17H21V14H13Z" fill="#333333" mask="url(#path-7-inside-4)"/>
</svg>
