<svg width="461" height="81" viewBox="0 0 461 81" fill="none" xmlns="http://www.w3.org/2000/svg">
<path d="M44.4446 22.6004C40.8329 19.6004 36.3182 17.6004 31.5025 17.6004C27.8908 17.6004 23.1754 19.7004 23.1754 23.9004C23.1754 28.3004 28.4927 30.0004 31.8035 31.0004L36.8198 32.5004C47.2538 35.6004 55.3802 40.8004 55.3802 52.9004C55.3802 60.3004 53.5743 68.0004 47.6551 73.0004C41.7358 78.0004 33.9103 80.0004 26.3859 80.0004C16.9552 80.0004 7.62481 76.8004 0 71.5004L8.12644 56.0004C13.0424 60.3004 18.761 63.7004 25.4829 63.7004C30.0979 63.7004 34.9136 61.4004 34.9136 56.2004C34.9136 50.7004 27.2888 48.9004 23.0751 47.7004C10.8353 44.1004 2.80914 41.0004 2.80914 26.5004C2.80914 11.3004 13.6444 1.40039 28.6934 1.40039C36.2178 1.40039 45.5482 3.8004 52.1698 7.6004L44.4446 22.6004Z" fill="white"/>
<path d="M91.899 19.8004V32.3004H113.87V48.8004H91.899V61.7004H115.175V78.2004H72.4357V3.40039H115.175V19.9004L91.899 19.8004Z" fill="white"/>
<path d="M129.622 3.40039H157.312C178.18 3.40039 195.436 19.8004 195.436 40.8004C195.436 61.8004 178.079 78.2004 157.312 78.2004H129.622V3.40039ZM149.185 61.7004H153.6C165.238 61.7004 175.17 55.3004 175.17 40.8004C175.17 27.4004 166.341 19.9004 153.8 19.9004H149.185V61.7004Z" fill="white"/>
<path d="M287.636 39.4004C287.636 63.6004 270.179 80.7004 246.101 80.7004C222.022 80.7004 204.566 63.6004 204.566 39.4004C204.566 16.8004 224.531 0.900391 246.101 0.900391C267.671 0.900391 287.636 16.8004 287.636 39.4004ZM224.832 39.5004C224.832 52.4004 234.363 61.8004 246 61.8004C257.638 61.8004 267.169 52.4004 267.169 39.5004C267.169 29.2004 257.638 19.7004 246 19.7004C234.463 19.7004 224.832 29.2004 224.832 39.5004Z" fill="white"/>
<path d="M297.97 3.40039H317.533L353.249 49.2004H353.45V3.40039H373.014V78.2004H353.45L317.734 32.3004H317.533V78.2004H297.97V3.40039Z" fill="white"/>
<path d="M408.429 65.2004L403.212 78.2004H382.545L411.439 3.40039H432.708L461 78.2004H440.233L435.317 65.2004H408.429ZM422.073 26.5004H421.873L413.847 50.3004H430.1L422.073 26.5004Z" fill="white"/>
</svg>
