<svg width="457" height="78" viewBox="0 0 457 78" fill="none" xmlns="http://www.w3.org/2000/svg">
<path d="M54.5 53C54.5 53.5 54.4 53.9 54.4 54.3C53.9 58.3 52.6 62.2 50.5 65.8C48.4 69.4 45.5 72.2 42 74.2C40.7 74.8 39.3 75.3 37.9 75.8C36.5 76.2 35.1 76.6 33.7 76.9C32.5 77.1 31.4 77.3 30.2 77.4C29 77.5 27.9 77.6 26.8 77.6C26.6 77.6 26.4 77.6 26.2 77.6C26 77.6 25.8 77.6 25.6 77.6C21 77.4 16.4 76.4 11.9 74.5C7.5 72.5 3.5 70 0 66.8L9.3 51.9C9.4 52 9.4 52 9.5 52.1C9.5 52.1 9.6 52.2 9.7 52.3C11.8 54.6 14.2 56.8 16.8 58.7C19.4 60.6 22.5 61.7 25.9 61.9C26 61.9 26.1 61.9 26.2 62C26.3 62 26.4 62.1 26.5 62.1C26.6 62.1 26.7 62.1 26.8 62.2C26.9 62.2 27 62.3 27.1 62.3C27.4 62.3 27.7 62.3 28.1 62.2C28.4 62.2 28.8 62.1 29.1 62C30.3 61.8 31.5 61.3 32.6 60.6C33.7 59.9 34.6 59.1 35.2 58C35.3 57.8 35.4 57.7 35.4 57.5C35.5 57.3 35.6 57.2 35.6 57C35.8 56.5 35.9 56 35.9 55.5C36 55 36 54.6 36 54.2C36 52.1 35.1 50.3 33.3 48.9C31.5 47.5 29.5 46.4 27.4 45.6C26.5 45.3 25.7 45 25 44.8C24.2 44.6 23.5 44.4 22.8 44.3C22.7 44.3 22.6 44.3 22.6 44.2C22.5 44.2 22.4 44.1 22.4 44.1C18.6 43.2 15 41.7 11.7 39.6C8.4 37.5 6.1 34.6 4.8 30.7C4.6 29.9 4.4 29.1 4.2 28.3C4 27.4 3.9 26.6 3.8 25.6C3.7 25.3 3.7 25 3.7 24.7C3.7 24.4 3.7 24.1 3.7 23.8C3.7 23.2 3.7 22.6 3.8 21.9C3.8 21.3 3.9 20.7 4.1 20C4.3 18.5 4.7 16.9 5.3 15.4C5.8 13.9 6.5 12.5 7.4 11.2C9.9 7.1 13.1 4.2 17 2.4C20.7 0.9 24.8 0 29 0C30 0 31 0.1 32.1 0.2C33.1 0.3 34.2 0.5 35.3 0.6C38.1 1.1 40.9 1.8 43.6 2.9C46.3 4 48.9 5.3 51.2 6.7L44.8 21C42.7 19.5 40.5 18.1 38.2 16.9C35.9 15.7 33.4 15.2 30.7 15.2C30.5 15.2 30.4 15.2 30.2 15.2C30 15.2 29.9 15.2 29.7 15.2C27.9 15.4 26.3 16.2 24.7 17.6C23.2 19 22.4 20.4 22.4 22C22.4 22.2 22.4 22.5 22.5 22.7C22.5 22.9 22.6 23.2 22.8 23.4C23 23.9 23.2 24.4 23.6 24.9C24 25.4 24.4 25.8 24.9 26.2C25.8 26.9 27 27.5 28.6 28.1C30.2 28.7 31.9 29.2 33.7 29.8C35.2 30.2 36.6 30.6 38 30.9C39.4 31.2 40.6 31.6 41.5 31.9C45.8 33.4 49.1 36 51.3 39.6C53.5 43.2 54.6 47 54.7 51C54.7 51.2 54.7 51.3 54.7 51.3C54.7 51.4 54.7 51.5 54.7 51.5C54.6 52 54.6 52.5 54.5 53ZM114.5 59.2V75.8H69.1V1.8H114.5V18H89V30.9H113V46.7H89V59.2H114.5ZM191.1 56.3C188.7 61.4 185.3 65.6 180.8 68.8C177.2 71.3 173.2 73 169 73.9C164.7 74.8 160.4 75.4 156.1 75.6C154.9 75.7 153.6 75.7 152.4 75.7C151.2 75.7 150 75.7 148.9 75.7H128.6V1.7H150.2C151.4 1.7 152.5 1.7 153.7 1.7C154.9 1.7 156.1 1.7 157.2 1.8C161.4 2 165.5 2.6 169.6 3.5C173.7 4.4 177.4 6.1 180.8 8.6C185.1 11.6 188.5 15.6 190.9 20.6C193.3 25.6 194.7 30.7 195 35.9C195.1 36.4 195.1 36.8 195.1 37.3C195.1 37.8 195.1 38.2 195.1 38.7C195.1 38.9 195.1 39.2 195.1 39.5C195.1 39.8 195.1 40 195.1 40.3C194.8 45.9 193.5 51.2 191.1 56.3ZM174.7 38C174.7 37.7 174.7 37.4 174.6 37.1C174.4 34.2 173.7 31.3 172.5 28.6C171.3 25.9 169.6 23.7 167.4 22C165.8 20.7 164 19.8 162 19.3C160 18.8 158 18.6 155.9 18.5C155.5 18.5 155.1 18.5 154.7 18.5C154.3 18.5 153.9 18.5 153.5 18.5H148.4V59.3C148.6 59.3 148.9 59.3 149.2 59.4C149.5 59.4 149.7 59.5 150 59.5C150.3 59.5 150.6 59.5 150.8 59.6C151 59.6 151.3 59.7 151.5 59.7C152.3 59.7 153.1 59.7 153.9 59.6C154.8 59.6 155.6 59.5 156.3 59.4C158.3 59.2 160.3 58.9 162.2 58.4C164.1 57.9 165.9 57 167.4 56C169.9 54.2 171.7 51.8 172.9 48.7C174.1 45.6 174.7 42.4 174.7 39.1C174.7 38.6 174.7 38.3 174.7 38ZM284.3 41.9C284.3 42.7 284.2 43.5 284 44.3C283.8 45.9 283.6 47.5 283.1 49.1C282.7 50.7 282.1 52.3 281.5 53.8C278.2 61.3 273.2 67.1 266.3 71.3C259.4 75.4 252.2 77.5 244.6 77.5C244.1 77.5 243.5 77.5 243 77.4C242.5 77.4 242 77.3 241.4 77.3C238.8 77.1 236.2 76.6 233.6 75.9C231 75.2 228.5 74.2 226.1 73C219.6 69.6 214.5 64.7 210.8 58.4C207.1 52.1 205.2 45.5 205.2 38.7C205.2 37.7 205.2 36.7 205.3 35.7C205.4 34.7 205.5 33.6 205.8 32.6C206.2 30.6 206.7 28.6 207.4 26.5C208.1 24.5 208.9 22.5 210 20.6C213.6 14 218.5 9 224.9 5.5C231.2 2 237.9 0.3 244.8 0.3C245.7 0.3 246.7 0.3 247.6 0.4C248.6 0.5 249.5 0.6 250.4 0.6C253.3 1 256.1 1.7 258.9 2.7C261.7 3.7 264.4 5 267 6.6C272.5 10.2 276.8 14.9 279.8 20.8C282.8 26.7 284.3 32.9 284.3 39.3C284.3 40.3 284.3 41.1 284.3 41.9ZM264.1 37.7C264.1 37.2 264 36.8 264 36.3C263.6 33 262.6 29.8 261 26.7C259.4 23.6 257.1 21.2 254.3 19.5C253.5 19.1 252.8 18.8 252 18.5C251.2 18.2 250.5 17.9 249.7 17.7C248.9 17.5 248.2 17.4 247.4 17.3C246.6 17.2 245.9 17.1 245.1 17.1C241.2 17.1 237.5 18.3 234.2 20.8C230.9 23.3 228.5 26.6 227.2 30.7C227.1 30.9 227.1 31 227 31.2C227 31.4 226.9 31.5 226.9 31.7C226.7 32.4 226.5 33.1 226.3 33.8C226.1 34.5 226 35.3 225.8 36.1C225.7 36.6 225.7 37.2 225.6 37.7C225.6 38.2 225.5 38.7 225.5 39.3C225.5 39.6 225.5 39.9 225.5 40.2C225.5 40.5 225.5 40.8 225.6 41.1C225.8 45.2 227.1 49.1 229.4 52.8C231.7 56.5 234.8 58.9 238.9 60.1C239.4 60.3 239.8 60.4 240.3 60.5C240.8 60.6 241.3 60.7 241.8 60.8C242.3 60.9 242.7 60.9 243.2 61C243.7 61 244.1 61.1 244.6 61.1C248.7 61.1 252.4 59.9 255.7 57.4C259 55 261.4 51.7 262.8 47.6C263 46.8 263.2 46 263.4 45.2C263.6 44.3 263.7 43.5 263.8 42.6C263.9 42.1 263.9 41.5 264 41C264 40.5 264.1 40 264.1 39.5C264.1 38.7 264.1 38.2 264.1 37.7ZM351.6 75.8L323.5 37.6C322.7 36.7 322 35.6 321.3 34.3C320.6 33 319.9 31.7 319.3 30.3C318.8 29.3 318.4 28.3 318 27.3C317.6 26.3 317.2 25.4 316.8 24.6C317.2 27 317.5 29.4 317.7 31.9C317.9 34.4 318 36.9 318 39.3V75.8H298.5V1.8H318L345.9 39.8C346.6 40.9 347.3 42 347.9 43.2C348.6 44.4 349.2 45.6 349.8 46.9C350.3 47.9 350.7 48.9 351.2 49.9C351.7 50.9 352.1 51.9 352.6 52.8C352.5 51.9 352.4 51.1 352.3 50.4C352.2 49.6 352.1 48.8 352 48C351.8 46.5 351.7 44.9 351.7 43.2C351.6 41.6 351.6 39.9 351.6 38.2V1.9H371V75.9H351.6V75.8ZM436.7 75.8L433 62.5H404.4L400.6 75.9H380.6L406 1.9H431.2L456.9 75.9H436.7V75.8ZM421.2 23.7C420.8 22.5 420.4 21.3 420.1 20C419.8 18.7 419.5 17.5 419.2 16.2C419 15.7 418.9 15.3 418.9 14.9C418.8 14.5 418.7 14.1 418.7 13.7C418.6 14.1 418.5 14.5 418.4 14.9C418.3 15.3 418.2 15.8 418.1 16.2C418 16.4 418 16.5 418 16.6C418 16.7 418 16.9 417.9 17C417.7 18.2 417.4 19.3 417.1 20.4C416.8 21.5 416.5 22.6 416.2 23.7L408.7 48.2H428.8L421.2 23.7Z" fill="white"/>
</svg>
