<svg width="460" height="80" viewBox="0 0 460 80" fill="none" xmlns="http://www.w3.org/2000/svg">
<path d="M44.3 21.7C40.7 18.7 36.2 16.7 31.4 16.7C27.8 16.7 23.1 18.8 23.1 23C23.1 27.4 28.4 29.1 31.7 30.1L36.7 31.6C47.1 34.7 55.2 39.9 55.2 52C55.2 59.4 53.4 67.1 47.5 72.1C41.6 77.1 33.8 79.1 26.3 79.1C16.9 79.1 7.6 75.9 0 70.6L8.3 54.9C13.2 59.2 18.9 62.6 25.6 62.6C30.2 62.6 35 60.3 35 55.1C35 49.6 27.4 47.8 23.2 46.6C10.8 43.3 2.8 40.1 2.8 25.6C2.8 10.4 13.6 0.5 28.6 0.5C36.1 0.5 45.4 2.9 52 6.7L44.3 21.7Z" fill="white"/>
<path d="M91.6 19V31.5H113.5V48H91.6V60.9H114.8V77.4H72.2V2.5H114.8V19H91.6Z" fill="white"/>
<path d="M129.2 2.5H156.8C177.6 2.5 194.8 18.9 194.8 39.9C194.8 60.9 177.5 77.3 156.8 77.3H129.2V2.5ZM148.7 60.8H153.1C164.7 60.8 174.6 54.4 174.6 39.9C174.6 26.5 165.8 19 153.3 19H148.7V60.8Z" fill="white"/>
<path d="M286.7 38.5C286.7 62.7 269.3 79.8 245.3 79.8C221.3 79.8 203.9 62.7 203.9 38.5C203.9 15.9 223.8 0 245.3 0C266.8 0 286.7 15.9 286.7 38.5ZM224.1 38.6C224.1 51.5 233.6 60.9 245.2 60.9C256.8 60.9 266.3 51.5 266.3 38.6C266.3 28.3 256.8 18.8 245.2 18.8C233.7 18.9 224.1 28.3 224.1 38.6Z" fill="white"/>
<path d="M297 2.5H316.5L352.1 48.3H352.3V2.5H371.8V77.3H352.3L316.7 31.4H316.5V77.3H297V2.5Z" fill="white"/>
<path d="M407.1 64.3L401.9 77.3H381.3L410.1 2.5H431.3L459.5 77.3H438.8L433.9 64.3H407.1ZM420.7 25.6H420.5L412.5 49.4H428.7L420.7 25.6Z" fill="white"/>
</svg>
