<svg width="32" height="20" viewBox="0 0 32 20" xmlns="http://www.w3.org/2000/svg"><path d="M29 0H3C1.3 0 0 1.3 0 3v14c0 1.7 1.3 3 3 3h26c1.7 0 3-1.3 3-3V3c0-1.7-1.3-3-3-3zM14.4 15.9c-.5.1-1.1.1-1.7.1-.7 0-1.4-.1-2-.3-.6-.2-1.2-.6-1.6-1-.4-.4-.8-1.1-1.1-1.9-.3-.8-.4-1.7-.4-2.8 0-1.1.2-2.1.5-2.9.3-.8.7-1.4 1.2-1.9s1.1-.8 1.7-1c.5-.1 1.2-.2 1.8-.2.7 0 1.2 0 1.7.1s.8.2 1.1.3l-.4 1.9-.9-.3H13c-.9 0-1.6.3-2.2 1-.6.7-.8 1.7-.8 3 0 .6.1 1.1.2 1.6s.3.9.6 1.3c.3.3.6.6 1 .8.4.2.9.3 1.4.3.5 0 .9 0 1.3-.1.3-.1.6-.2.9-.4l.5 1.8c-.5.3-1 .4-1.5.6zm8.7 0c-.5.1-1.1.1-1.7.1-.7 0-1.4-.1-2-.3-.6-.2-1.2-.6-1.6-1-.5-.5-.9-1.1-1.1-1.9-.3-.8-.4-1.7-.4-2.8 0-1.1.2-2.1.5-2.9.3-.8.7-1.4 1.2-1.9s1.1-.8 1.7-1c.5-.1 1.2-.2 1.8-.2.7 0 1.2 0 1.7.1s.8.2 1.1.3l-.4 1.9L23 6h-1.3c-.9 0-1.6.3-2.2 1-.6.7-.8 1.7-.8 3 0 .6.1 1.1.2 1.6s.3.9.6 1.3c.3.3.6.6 1 .8.4.2.9.3 1.4.3.5 0 .9 0 1.3-.1.3-.1.6-.2.9-.4l.5 1.8c-.5.3-1 .4-1.5.6z"/></svg>
